<svg xmlns="http://www.w3.org/2000/svg" version="1.1" xmlns:xlink="http://www.w3.org/1999/xlink" xmlns:svgjs="http://svgjs.dev/svgjs" viewBox="0 0 1920 1080"><rect width="1920" height="1080" fill="#202225"></rect><g transform="matrix(1.15,0,0,1.15,-142.98534665107718,-81)"><path d="M0,-1080C-2.2425810423597192,-960.2162030600039,-14.587915832243818,-586.7854854712168,-13.455486254158316,-361.29721836002284C-12.323056676072815,-135.80895124882883,-10.662823108042783,79.67789616811481,6.794577468513012,272.929602667164C24.251978045068807,466.18130916621317,76.65926742951761,582.4420118108477,91.28891720517646,798.213020634272C105.91856698083531,1013.9840294576962,109.78729565666218,1340.591159046755,94.5724761224661,1567.5556556077095C79.35765658827002,1794.520152168664,15.76207935374435,2061.259275934618,0,2160L 1920 2160 L 1920 -1080 Z" fill="url(&quot;#SvgjsLinearGradient1477&quot;)"></path><path d="M640,-1080C641.5632371787552,-968.0882219136423,660.8048577107634,-617.4767430129685,649.3794230725315,-408.52933148185366C637.9539884342996,-199.58191995073878,578.1752636341807,-38.716742985918984,571.4473921706085,173.68446918668923C564.7195207070363,386.08568135929744,609.1438261390908,647.220766555159,609.0121942910979,865.8779415537956C608.880562443105,1084.5351165524323,565.4929667978341,1269.9405094374752,570.6576010826511,1485.6275191785091C575.8222353674681,1701.3145289195431,628.4429335137752,2047.6045865297515,640,2160L 1920 2160 L 1920 -1080 Z" fill="url(&quot;#SvgjsLinearGradient1478&quot;)"></path><path d="M1280,-1080C1268.7980084181752,-1010.0182919877394,1203.9233715865898,-807.2786621943918,1212.7880505090516,-660.1097519264367C1221.6527294315133,-512.9408416584816,1310.9147663526983,-318.9001315324266,1333.18807353477,-196.98653839226944C1355.4613807168416,-75.07294525211228,1349.1973128053871,-35.82812975083564,1346.427893601481,71.37180691450621C1343.6584743975748,178.57174357984806,1322.317794918606,295.0200140844654,1316.5715583113324,446.2130815997817C1310.8253217040588,597.406149115098,1333.1850550119213,835.309363090588,1311.9504739578394,978.5302120064038C1290.7158929037575,1121.7510609222195,1199.2070807744599,1166.676498220018,1189.164071986841,1305.5381750946758C1179.1210631992221,1444.3998519693337,1236.553099896599,1669.289969103463,1251.6924212321255,1811.7002732543503C1266.831742567652,1954.1105774052378,1275.2820702053543,2101.9500455423918,1280,2160L 1920 2160 L 1920 -1080 Z" fill="url(&quot;#SvgjsLinearGradient1479&quot;)"></path></g><defs><linearGradient x1="0.1" y1="0" x2="0" y2="1" id="SvgjsLinearGradient1477"><stop stop-color="#202225" offset="0"></stop><stop stop-color="#202325" offset="0"></stop></linearGradient><linearGradient x1="0.1" y1="0" x2="0" y2="1" id="SvgjsLinearGradient1478"><stop stop-color="#161719" offset="0"></stop><stop stop-color="#161719" offset="0.3333333333333333"></stop></linearGradient><linearGradient x1="0.1" y1="0" x2="0" y2="1" id="SvgjsLinearGradient1479"><stop stop-color="#0b0c0d" offset="0"></stop><stop stop-color="#0b0c0d" offset="0.6666666666666666"></stop></linearGradient></defs></svg>